<?xml version="1.0" encoding="UTF-8" standalone="no"?>
<!-- Created with Inkscape (http://www.inkscape.org/) -->

<svg
   xmlns:dc="http://purl.org/dc/elements/1.1/"
   xmlns:cc="http://creativecommons.org/ns#"
   xmlns:rdf="http://www.w3.org/1999/02/22-rdf-syntax-ns#"
   xmlns:svg="http://www.w3.org/2000/svg"
   xmlns="http://www.w3.org/2000/svg"
   xmlns:xlink="http://www.w3.org/1999/xlink"
   xmlns:sodipodi="http://sodipodi.sourceforge.net/DTD/sodipodi-0.dtd"
   xmlns:inkscape="http://www.inkscape.org/namespaces/inkscape"
   width="27.719999"
   height="27.719999"
   id="svg8570"
   version="1.1"
   inkscape:version="0.48.3.1 r9886"
   sodipodi:docname="black_piece.svg">
  <defs
     id="defs8572">
    <radialGradient
       inkscape:collect="always"
       xlink:href="#linearGradient20345"
       id="radialGradient6204"
       gradientUnits="userSpaceOnUse"
       gradientTransform="matrix(1,0,0,1.000468,0,1.9575037)"
       cx="128.53384"
       cy="90.864998"
       fx="128.53384"
       fy="90.864998"
       r="11.73864" />
    <linearGradient
       id="linearGradient20345"
       inkscape:collect="always">
      <stop
         id="stop20347"
         offset="0"
         style="stop-color:black;stop-opacity:1;" />
      <stop
         id="stop20349"
         offset="1"
         style="stop-color:black;stop-opacity:0;" />
    </linearGradient>
    <radialGradient
       r="11.230826"
       fy="75.778175"
       fx="-48.377285"
       cy="76.44162"
       cx="-44.35326"
       gradientTransform="matrix(0.47953327,1.0457047,-1.8564011,0.85129769,280.06854,71.11366)"
       gradientUnits="userSpaceOnUse"
       id="radialGradient6283"
       xlink:href="#linearGradient4176"
       inkscape:collect="always" />
    <linearGradient
       id="linearGradient4176">
      <stop
         style="stop-color:#ffffff;stop-opacity:1"
         offset="0"
         id="stop4178" />
      <stop
         id="stop4182"
         offset="0.60337925"
         style="stop-color:#dadada;stop-opacity:1;" />
      <stop
         style="stop-color:#bda98f;stop-opacity:1;"
         offset="1"
         id="stop4180" />
    </linearGradient>
    <radialGradient
       inkscape:collect="always"
       xlink:href="#linearGradient4222"
       id="radialGradient4228"
       cx="115.25745"
       cy="295.69684"
       fx="115.25745"
       fy="295.69684"
       r="11.680048"
       gradientTransform="matrix(1,0,0,0.98333449,10,-205.00427)"
       gradientUnits="userSpaceOnUse" />
    <linearGradient
       id="linearGradient4222">
      <stop
         style="stop-color:#cf9b49;stop-opacity:0;"
         offset="0"
         id="stop4224" />
      <stop
         id="stop4230"
         offset="0.6632508"
         style="stop-color:#c7a949;stop-opacity:0.74675328;" />
      <stop
         style="stop-color:#976a45;stop-opacity:1;"
         offset="1"
         id="stop4226" />
    </linearGradient>
    <linearGradient
       inkscape:collect="always"
       xlink:href="#linearGradient4236"
       id="linearGradient4284"
       x1="112.40625"
       y1="291.3125"
       x2="112.34925"
       y2="296.58887"
       gradientUnits="userSpaceOnUse" />
    <linearGradient
       id="linearGradient4236">
      <stop
         style="stop-color:#ffffff;stop-opacity:1;"
         offset="0"
         id="stop4238" />
      <stop
         id="stop4244"
         offset="0.5"
         style="stop-color:#ffffff;stop-opacity:0.49803922;" />
      <stop
         style="stop-color:#ffffff;stop-opacity:0;"
         offset="1"
         id="stop4240" />
    </linearGradient>
    <radialGradient
       inkscape:collect="always"
       xlink:href="#linearGradient4236"
       id="radialGradient4242"
       cx="113.93258"
       cy="295.82947"
       fx="113.93258"
       fy="295.82947"
       r="2.3864853"
       gradientTransform="matrix(1,0,0,0.92592594,0,21.913288)"
       gradientUnits="userSpaceOnUse" />
    <linearGradient
       id="linearGradient8542">
      <stop
         style="stop-color:#ffffff;stop-opacity:1;"
         offset="0"
         id="stop8544" />
      <stop
         id="stop8546"
         offset="0.5"
         style="stop-color:#ffffff;stop-opacity:0.49803922;" />
      <stop
         style="stop-color:#ffffff;stop-opacity:0;"
         offset="1"
         id="stop8548" />
    </linearGradient>
    <radialGradient
       inkscape:collect="always"
       xlink:href="#linearGradient4236"
       id="radialGradient4297"
       cx="116.92228"
       cy="311.73679"
       fx="116.92228"
       fy="311.73679"
       r="6.46875"
       gradientTransform="matrix(1.0733474,-0.60211389,0.42148407,0.75135083,-125.78902,-66.39272)"
       gradientUnits="userSpaceOnUse" />
    <linearGradient
       id="linearGradient8551">
      <stop
         style="stop-color:#ffffff;stop-opacity:1;"
         offset="0"
         id="stop8553" />
      <stop
         id="stop8555"
         offset="0.5"
         style="stop-color:#ffffff;stop-opacity:0.49803922;" />
      <stop
         style="stop-color:#ffffff;stop-opacity:0;"
         offset="1"
         id="stop8557" />
    </linearGradient>
    <radialGradient
       r="6.46875"
       fy="311.73679"
       fx="116.92228"
       cy="311.73679"
       cx="116.92228"
       gradientTransform="matrix(1.0733474,-0.60211389,0.42148407,0.75135083,-125.78902,-66.39272)"
       gradientUnits="userSpaceOnUse"
       id="radialGradient8568"
       xlink:href="#linearGradient4236"
       inkscape:collect="always" />
    <linearGradient
       id="linearGradient20345-2"
       inkscape:collect="always">
      <stop
         id="stop20347-6"
         offset="0"
         style="stop-color:black;stop-opacity:1;" />
      <stop
         id="stop20349-6"
         offset="1"
         style="stop-color:black;stop-opacity:0;" />
    </linearGradient>
    <linearGradient
       id="linearGradient4098">
      <stop
         style="stop-color:#3f3a46;stop-opacity:1;"
         offset="0"
         id="stop4100" />
      <stop
         style="stop-color:#030007;stop-opacity:1;"
         offset="1"
         id="stop4102" />
    </linearGradient>
    <linearGradient
       id="linearGradient12948-1">
      <stop
         style="stop-color:#ffffff;stop-opacity:1;"
         offset="0"
         id="stop12950-5" />
      <stop
         style="stop-color:#c0c0c0;stop-opacity:0;"
         offset="1"
         id="stop12952-9" />
    </linearGradient>
    <linearGradient
       id="linearGradient4126">
      <stop
         style="stop-color:#f7f6cb;stop-opacity:1;"
         offset="0"
         id="stop4128" />
      <stop
         style="stop-color:#545059;stop-opacity:0"
         offset="1"
         id="stop4130" />
    </linearGradient>
    <linearGradient
       id="linearGradient4137">
      <stop
         style="stop-color:#ffdadd;stop-opacity:1;"
         offset="0"
         id="stop4139" />
      <stop
         style="stop-color:#7a696b;stop-opacity:0;"
         offset="1"
         id="stop4141" />
    </linearGradient>
    <linearGradient
       id="linearGradient4151">
      <stop
         style="stop-color:#593f20;stop-opacity:1;"
         offset="0"
         id="stop4153" />
      <stop
         style="stop-color:#d8be9f;stop-opacity:0;"
         offset="1"
         id="stop4155" />
    </linearGradient>
    <radialGradient
       inkscape:collect="always"
       xlink:href="#linearGradient4126"
       id="radialGradient4214"
       gradientUnits="userSpaceOnUse"
       gradientTransform="matrix(0.5358942,0.36405218,-0.72241288,2.3909715,190.82786,-714.95723)"
       cx="56.556049"
       cy="296.69992"
       fx="55.784531"
       fy="296.72311"
       r="1.4126275" />
    <linearGradient
       id="linearGradient4527">
      <stop
         style="stop-color:#f7f6cb;stop-opacity:1;"
         offset="0"
         id="stop4529" />
      <stop
         style="stop-color:#545059;stop-opacity:0"
         offset="1"
         id="stop4531" />
    </linearGradient>
    <radialGradient
       inkscape:collect="always"
       xlink:href="#linearGradient20345-2"
       id="radialGradient3094"
       gradientUnits="userSpaceOnUse"
       gradientTransform="matrix(1,0,0,1.000467,0,1.9912005)"
       cx="20.533834"
       cy="18.832041"
       fx="20.533834"
       fy="18.832041"
       r="11.738645" />
    <radialGradient
       inkscape:collect="always"
       xlink:href="#linearGradient4098"
       id="radialGradient3096"
       gradientUnits="userSpaceOnUse"
       gradientTransform="matrix(0.96704875,0.25459126,-0.31945757,1.2134393,5.126626,-6.57585)"
       cx="15.061152"
       cy="16.907494"
       fx="10.721516"
       fy="12.770355"
       r="11.738644" />
    <linearGradient
       inkscape:collect="always"
       xlink:href="#linearGradient12948-1"
       id="linearGradient3098"
       gradientUnits="userSpaceOnUse"
       gradientTransform="translate(-47.999997,-282)"
       x1="53.520744"
       y1="292.94659"
       x2="60.359375"
       y2="298.94659" />
    <radialGradient
       inkscape:collect="always"
       xlink:href="#linearGradient4126"
       id="radialGradient3100"
       gradientUnits="userSpaceOnUse"
       gradientTransform="matrix(0.99964349,0.01218625,-0.01125712,1.9337061,3.1067381,-256.2542)"
       cx="82.25"
       cy="273.375"
       fx="81.249428"
       fy="273.41141"
       r="2.125" />
    <radialGradient
       inkscape:collect="always"
       xlink:href="#linearGradient4137"
       id="radialGradient3102"
       gradientUnits="userSpaceOnUse"
       gradientTransform="matrix(0.90617789,0.26496546,-1.0714229,3.1435306,275.05645,-933.09043)"
       cx="56.434963"
       cy="296.79132"
       fx="55.875504"
       fy="296.95352"
       r="1.4126275" />
    <linearGradient
       inkscape:collect="always"
       xlink:href="#linearGradient4151"
       id="linearGradient3104"
       gradientUnits="userSpaceOnUse"
       gradientTransform="translate(-47.999997,-282)"
       x1="73.0625"
       y1="309.17209"
       x2="70.4375"
       y2="306.17209" />
    <radialGradient
       inkscape:collect="always"
       xlink:href="#linearGradient4126"
       id="radialGradient3106"
       gradientUnits="userSpaceOnUse"
       gradientTransform="matrix(0.5358942,0.36405218,-0.72241288,2.3909715,190.82786,-714.95723)"
       cx="56.556049"
       cy="296.69992"
       fx="55.784531"
       fy="296.72311"
       r="1.4126275" />
  </defs>
  <sodipodi:namedview
     id="base"
     pagecolor="#ffffff"
     bordercolor="#666666"
     borderopacity="1.0"
     inkscape:pageopacity="0.0"
     inkscape:pageshadow="2"
     inkscape:zoom="15.839192"
     inkscape:cx="3.1968395"
     inkscape:cy="9.7028575"
     inkscape:document-units="px"
     inkscape:current-layer="black_stone"
     showgrid="false"
     inkscape:window-width="1920"
     inkscape:window-height="1025"
     inkscape:window-x="-3"
     inkscape:window-y="-3"
     inkscape:window-maximized="1"
     fit-margin-top="0"
     fit-margin-left="0"
     fit-margin-right="0"
     fit-margin-bottom="0" />
  <metadata
     id="metadata8575">
    <rdf:RDF>
      <cc:Work
         rdf:about="">
        <dc:format>image/svg+xml</dc:format>
        <dc:type
           rdf:resource="http://purl.org/dc/dcmitype/StillImage" />
        <dc:title />
      </cc:Work>
    </rdf:RDF>
  </metadata>
  <g
     inkscape:label="Layer 1"
     inkscape:groupmode="layer"
     id="layer1"
     transform="translate(-363.81431,-521.23866)">
    <g
       id="black_stone"
       inkscape:label="#black_stone"
       transform="translate(358.26269,516.38249)">
      <path
         inkscape:connector-curvature="0"
         inkscape:tile-cy="-126"
         inkscape:tile-cx="18"
         inkscape:tile-h="36"
         inkscape:tile-w="36"
         id="rect2376"
         d="M 0,0 36,0 36,36 0,36 0,0 z"
         style="fill:none;stroke:none" />
      <use
         height="108"
         width="144"
         id="use2404"
         xlink:href="#rect2376"
         inkscape:tiled-clone-of="#rect2376"
         y="0"
         x="0" />
      <g
         id="g3082"
         transform="translate(2.1465743,0.82074988)">
        <path
           style="fill:url(#radialGradient3094);fill-opacity:1;stroke:none;display:inline"
           d="m 32.27248,20.83204 c 0,6.48276 -5.258917,11.74413 -11.73865,11.74413 -6.47973,0 -11.73864,-5.26137 -11.73864,-11.74413 0,-6.48276 5.25891,-11.74413 11.73864,-11.74413 6.479733,0 11.73865,5.26137 11.73865,11.74413 z"
           id="path8746"
           inkscape:connector-curvature="0" />
        <path
           style="fill:url(#radialGradient3096);fill-opacity:1;stroke:none;display:inline"
           d="m 29.02891,17.77481 c 0,6.48276 -5.258917,11.74413 -11.738647,11.74413 -6.47973,0 -11.73864,-5.26137 -11.73864,-11.74413 0,-6.48276 5.25891,-11.74414 11.73864,-11.74414 6.47973,0 11.738647,5.26137 11.738647,11.74414 z"
           id="use2387"
           clip-path="none"
           mask="none"
           inkscape:connector-curvature="0" />
        <path
           style="color:#000000;fill:none;stroke:#3e3e3e;stroke-width:0.40000001;stroke-linecap:butt;stroke-linejoin:miter;stroke-miterlimit:4;stroke-opacity:0.36956524;stroke-dasharray:0.40000001, 2.40000004;stroke-dashoffset:0;marker:none;visibility:visible;display:inline;overflow:visible;enable-background:accumulate"
           d="m 24.124998,22.75001 c -0.381874,-0.29811 -1.12067,-0.58413 -1.744982,-0.5625 -0.707436,-0.0588 -0.742412,0.72693 -0.692518,1.25 -0.184728,0.40425 0.04305,1.01677 -0.0625,1.3125 -0.774186,0.36227 -1.581471,0.005 -2.125,-0.5625 -0.542803,-0.51734 -0.973569,-1.2706 -1.843218,-1.38141 -0.943097,-0.0555 -1.250032,0.94892 -1.218724,1.70328 0.06198,0.71871 0.64521,1.80086 -0.188058,2.30313 -0.503046,0.35155 -1.15044,0.26604 -1.720165,0.19684 C 13.427705,26.66484 12.416298,26.10227 11.437499,25.56251 10.500515,25.04927 9.274358,24.90966 8.948804,23.69642 8.700509,22.77806 8.003326,22.09177 7.937499,21.12501 7.936958,20.36306 7.329352,19.9689 7.617754,19.31615 c 1.095332,-0.72481 1.663581,0.83071 2.507245,1.24636 0.763386,0.75548 1.800296,1.09903 2.625,1.75 0.386363,0.48708 1.153371,1.47758 1.75,0.8125 0.728088,-0.78219 0.639744,-2.06087 -0.328133,-2.60151 -0.5562,-0.36171 -1.75977,-0.70067 -2.068888,-0.76851 -0.878341,-0.14952 -1.927698,-0.51201 -2.031385,-1.54343 -0.09732,-0.92457 -1.370105,-1.24425 -1.071594,-1.96155 0.539449,-0.86467 1.863079,-0.0583 2.567504,0.32633 0.985141,0.61132 1.648172,1.61061 2.577997,2.27356 0.910217,0.83291 1.985674,0.85681 3.09948,0.52511 0.396664,4.1e-4 0.799316,-5.6e-4 1.192518,0 -0.896357,-0.45257 -1.298323,-1.50318 -1.6875,-2.375 -0.2206,-0.75695 -0.963207,-1.20491 -1.734947,-1.0625 -0.666379,-0.18851 -1.610442,0.49911 -2.077552,0 -0.365378,-1.0056 -1.169564,-2.008 -2.25,-2.25 -0.851814,-0.19209 -1.759989,-0.2726 -2.5625,0.125 -0.673218,0.57643 -1.247801,1.37712 -1.3125,2.3125 -0.06349,0.54211 -0.226988,1.35784 0.3125,1.875 0.651619,1.03325 0.76726,-1.07608 1.217239,-1.5008 0.207144,-0.47682 0.691577,-1.25439 0.845078,-1.5185 -0.420973,0.5251 0.619316,-0.76479 0.377152,-1.14628 -0.544347,-0.52547 -0.848239,-1.42112 -0.002,-2.02192 0.742195,-0.55273 1.783093,-0.68462 2.672447,-0.875 0.804246,-0.39796 1.224773,0.69839 0.515053,1.125 -0.579715,1.22204 -1.795318,0.5289 -2.5,-0.1875 -0.486178,-0.23026 -0.471673,-1.5559 -0.5625,-1.50502 -0.09509,0.63992 0.165009,1.27237 0.811894,1.50606 0.389466,0.21676 1.204173,0.83121 1.124186,0.66842 0.746242,0.58371 1.853809,0.64039 2.56392,-0.0445 0.749673,-0.53033 1.164574,-1.41864 1.499999,-2.25 0.232299,-0.88177 -0.121168,-1.71229 -0.25,-2.5625 -0.02647,-1.04432 -1.579251,-1.17544 -2.206601,-0.55012 -0.892048,0.43199 -1.717233,1.10668 -2.230898,1.98762 -0.418454,0.74832 0.831174,0.27852 1.135929,-0.0153 0.844307,-0.5569 1.339749,-0.65498 2.114069,-1.14098 0.714263,-0.57516 2.030159,-0.64641 2.60437,-0.5284 0.897148,0.18206 1.788306,0.2883 2.708131,0.30965 0.858836,0.44374 1.874995,0.34247 2.6875,0.9375 0.670664,0.47453 1.365182,1.10801 1.55952,1.93181 -0.172361,1.08489 -1.107708,0.41094 -1.650697,-0.0147 -0.995681,-0.51872 -2.080017,-0.73281 -3.032479,-1.32748 -0.838689,-0.11284 -1.9857,-0.42693 -2.500129,0.47395 -0.734672,0.38413 -0.439068,1.06347 -0.06372,1.56146 0.609877,0.84014 1.791733,0.42081 2.5,0.875 0.565372,0.36591 1.877855,0.45155 1.9375,1.125 -0.846965,0.67534 -1.998256,0.20735 -2.744207,-0.39098 -0.851649,-0.62344 -1.993152,-0.21152 -2.943293,-0.42152 -0.75703,0.71115 -0.294956,1.77888 0.75,1.75 0.427507,-0.47591 0.453678,0.41766 0.997211,0.69136 0.551621,0.24774 0.325048,0.40355 1.065289,0.68364 0.939672,0.27353 1.280371,1.64936 0.1875,2 -0.800667,-0.0136 -1.113788,-1.13649 -1.360829,-1.7336 -0.378828,-0.63776 -0.11638,-1.2894 0.503833,-1.70588 0.451014,-0.14832 1.172763,-0.4311 0.325522,-0.37797 -1.120704,0.0767 -2.144457,0.66686 -3.031026,1.31745 -0.733993,0.59042 -0.743102,1.49516 -0.0625,2.125 0.93714,0.8684 2.051918,-0.35238 2.5625,-1.125 0.705599,-0.87735 1.244255,-1.87789 1.746462,-2.87707 0.28726,-0.87996 1.377481,-1.48454 2.036188,-0.59298 0.669354,0.39522 0.946377,1.9242 1.879038,1.47315 0.929122,-0.7176 0.580587,-2.12788 -0.03669,-2.9406 -0.595593,-1.03417 -1.826478,-0.9628 -2.81473,-0.64789 -0.514137,0.23847 -2.575871,0.60105 -1.383909,1.31288 1.180364,0.23014 1.926167,-1.06718 1.957789,-2.08699 C 20.59702,8.80926 19.874906,7.49002 18.757424,8.06369 18.162879,8.37904 17.27389,8.29617 16.68746,8.74998 c -0.780773,0.58603 0.291944,0.258 0.42547,-0.20045 0.496694,-0.53669 0.4407,-1.5047 -0.23797,-1.79955 -0.971275,-0.10763 -1.730419,1.04891 -2.374999,1.6875 -0.521071,0.88171 -0.759327,1.95471 -0.814365,2.9747 0.167307,0.86104 0.934873,1.85583 1.910094,1.77792 0.834244,-0.21092 1.94723,-0.85102 1.84177,-1.85755 0.23314,-1.29483 -1.376941,-0.64057 -2.004477,-0.31878 -0.622484,0.2402 -1.446112,0.61764 -2.12202,1.07769 -1.208308,0.59189 -2.250039,1.80887 -2.131208,3.22166 0.149942,1.31312 1.366182,2.09369 2.415678,2.71276 0.898652,0.56929 2.150334,0.51433 2.792895,-0.41612 0.950258,-1.10638 1.705397,-2.37744 2.799132,-3.35978 0.486336,-0.69375 1.663631,-1.86684 2.331292,-0.73121 0.53065,0.45032 0.878076,1.24346 1.606208,1.35621 0.561026,0.0544 1.169097,0.11762 1.75,0 0.924769,0.19664 1.20832,-0.82514 1.3125,-1.55246 0.0072,-0.6659 -0.03366,-1.37149 -0.4375,-1.94754 -0.222685,0.0125 0.598292,1.5288 -0.125,2.0625 -0.738834,1.0047 -1.762443,1.8461 -2.1875,3.0625 -0.278264,0.83786 -0.372908,1.43097 -0.821147,2.18836 -0.450548,0.34094 -1.248924,0.87667 -1.303853,1.31164"
           id="path4183"
           inkscape:connector-curvature="0" />
        <path
           sodipodi:nodetypes="csssssscc"
           id="path4106"
           d="m 18.874998,7.12501 c -1.375,-1.125 -3.766466,-1.26255 -6.406249,-5e-5 -2.15625,1.03125 -4.4375,2.6875 -5.9375,6.15625 -1.585317,3.66605 -0.71875,6.40625 -0.40625,7.09375 0.393929,0.86664 1.821578,-2.52591 4,-2.125 1.536302,0.28274 2.875,-2 3.249999,-3.5 0.375,-1.5 0.75,-3.25 2.125,-4.375 1.375,-1.125 4.75,-1.375 3.375,-3.25 l 0,5e-5 z"
           style="opacity:0.42276426;color:#000000;fill:url(#linearGradient3098);fill-opacity:1;fill-rule:nonzero;stroke:none;stroke-width:1;marker:none;visibility:visible;display:inline;overflow:visible;enable-background:accumulate"
           clip-path="none"
           mask="none"
           inkscape:connector-curvature="0" />
        <path
           sodipodi:type="arc"
           style="color:#000000;fill:url(#radialGradient3100);fill-opacity:1;fill-rule:nonzero;stroke:none;stroke-width:1;marker:none;visibility:visible;display:inline;overflow:visible;enable-background:accumulate"
           id="path4124"
           sodipodi:cx="82.25"
           sodipodi:cy="273.375"
           sodipodi:rx="2.722106"
           sodipodi:ry="5.1583548"
           d="m 84.972106,273.375 c 0,2.84888 -1.218728,5.15835 -2.722106,5.15835 -1.503378,0 -2.722106,-2.30947 -2.722106,-5.15835 0,-2.84888 1.218728,-5.15835 2.722106,-5.15835 1.503378,0 2.722106,2.30947 2.722106,5.15835 z"
           transform="matrix(0.39726016,0.85770847,-0.84129161,0.48106975,210.55245,-191.86685)"
           clip-path="none"
           mask="none" />
        <path
           style="color:#000000;fill:url(#radialGradient3102);fill-opacity:1;fill-rule:nonzero;stroke:none;stroke-width:1;marker:none;visibility:visible;display:inline;overflow:visible;enable-background:accumulate"
           d="m 10.009689,9.71876 c 0,0 -2.641133,2.51719 -3.25357,4.92802 C 6.143683,17.05761 6.60301,19.46843 7.521666,19.18481 8.44032,18.90118 9.205865,17.41214 9.052757,16.84489 8.899648,16.27763 9.626915,11.2078 10.545571,10.56964 11.126579,10.16603 10.009689,9.78967 10.009689,9.71876 z"
           id="path4135"
           sodipodi:nodetypes="cssssc"
           clip-path="none"
           mask="none"
           inkscape:connector-curvature="0" />
        <path
           style="opacity:0.39430895;color:#000000;fill:url(#linearGradient3104);fill-opacity:1;fill-rule:nonzero;stroke:none;stroke-width:1;marker:none;visibility:visible;display:inline;overflow:visible;enable-background:accumulate"
           d="m 16.562498,29.06251 c 0,0 3.375,-0.5625 6.625,-3 3.25,-2.4375 5.125,-7 5.125,-7 0,0 -0.4375,6.4375 -5.75,8.6875 -5.3125,2.25 -6,1.375 -6,1.3125 z"
           id="path4149"
           clip-path="none"
           mask="none"
           inkscape:connector-curvature="0" />
        <path
           sodipodi:nodetypes="cccccccccccccccccccccccccccccccccsccsccccccccccccccccccccccscscccccccccccccccccccccccccccccccccccccccccccccccccccccccccccccccccccccccscccccccccccccccccccccccc"
           style="color:#000000;fill:none;stroke:#000000;stroke-width:0.21261856;stroke-linecap:butt;stroke-linejoin:miter;stroke-miterlimit:4;stroke-opacity:0.17826083;stroke-dasharray:0.21261857, 0.85047426;stroke-dashoffset:0;marker:none;visibility:visible;display:inline;overflow:visible;enable-background:accumulate"
           d="M 8.160523,11.80869 C 8.424599,11.42152 8.96851,10.56868 8.873438,10.79798 9.524171,9.82047 10.410985,9.01307 11.352217,8.3521 11.461046,8.71503 10.668278,9.68781 10.472871,10.28372 10.335262,10.7671 9.358561,12.04274 9.826393,12.0514 10.758868,10.89018 11.45353,9.52519 12.601188,8.55827 12.90397,8.23457 14.429909,6.84125 13.697134,8.01323 13.242455,8.866 12.537269,9.5343 12.199122,10.45747 11.604091,11.082 11.766996,12.14485 12.495997,11.06688 13.623775,9.67964 14.52638,8.071 15.913445,6.93065 16.876481,5.82409 15.749244,7.746 15.466464,8.09423 c -0.464159,0.45672 -0.61301,2.17926 0.283074,1.20588 0.940336,-0.90858 1.665876,-2.04209 2.572294,-2.98129 -0.259303,0.5457 -1.074294,2.29766 -0.130273,2.23661 0.389008,-0.27148 1.36036,-1.6647 1.546728,-0.97194 -0.08913,0.70309 -1.36034,1.90663 -0.634816,2.32746 1.037657,-0.64091 1.834834,-1.66538 2.920907,-2.21699 0.97086,0.26908 -1.051924,1.65491 -0.575989,2.42033 0.954507,-0.27153 1.396461,-1.46213 2.344918,-1.69441 -0.0522,0.60101 -0.749404,2.36771 0.423387,1.49107 0.398246,-0.31914 1.443216,-0.99106 0.95479,0.0825 -0.353978,0.629 -0.127336,1.80563 0.641058,0.93422 1.11773,-0.8273 -0.168386,1.12598 -0.18108,1.66696 0.157575,1.33648 1.173207,-0.71461 1.809494,-0.65031 -0.02927,0.54498 -1.139642,2.39715 0.130274,1.55885 1.254545,-0.52354 -0.244714,1.45716 -0.13614,2.10099 -0.06576,1.0591 1.522268,-0.70369 0.980146,0.56268 -0.448174,1.02122 -1.178237,1.95369 -1.251111,3.11427 0.468053,-0.12319 0.914196,-1.62622 1.579564,-1.16916 -0.136101,0.90668 -0.675028,1.65783 -1.007872,2.47472 -0.363165,0.401 -0.504422,1.64016 0.03083,0.57521 0.334714,-0.39586 1.356029,-2.35759 0.687028,-1.01491 -0.656188,1.08979 -1.286936,2.20291 -1.689631,3.42537 -0.315639,0.54803 -0.137269,0.89289 0.108035,0.12643 0.04363,-0.10903 1.08547,-1.59987 0.948382,-1.42604 -0.348775,0.70166 -0.822143,1.35637 -1.161137,2.07463 -1.015895,1.02386 -0.115282,-1.00343 -0.260546,-0.67776 -0.390181,0.89852 -0.740615,1.96635 -1.693552,2.37217 -0.668515,-0.21416 1.178318,-2.52374 -0.04093,-1.23659 -0.705362,0.9129 -1.139057,2.1578 -1.826389,2.98054 0.07356,-0.40222 0.527001,-1.76049 0.430461,-1.52529 0.07343,0.17971 0.312159,-1.23383 0.59008,-1.64196 0.07018,-0.52194 1.191857,-2.08502 0.11503,-1.01278 -0.832167,1.0997 -1.409139,2.37733 -1.938855,3.65605 -0.750796,0.79606 -0.0887,-0.80431 -0.01621,-1.21606 0.320723,-1.43709 0.754815,-2.89287 0.650378,-4.38011 -0.63482,0.46403 -0.828711,1.53089 -1.130786,2.3138 -0.344845,1.12149 -0.764219,2.29703 -0.610711,3.4857 0.304194,-0.80595 0.681571,-1.56409 0.597806,-2.47155 0.04507,-0.85099 -0.885051,-2.11142 -1.574855,-1.05282 -0.78107,1.15365 -0.716771,2.65928 -0.586229,3.99881 0.29845,1.68002 1.699075,-0.37851 1.583271,-1.23684 0.283275,-0.93538 0.189632,-2.45192 -0.780923,-2.88406 -1.204558,0.21447 -1.991479,1.56094 -2.191825,2.76446 -0.108996,0.57626 -0.345738,2.48049 0.477565,1.96642 0.67399,-0.82658 0.923417,-2.17427 0.232698,-3.08719 -0.644457,-1.25793 -2.243064,-0.56692 -2.725308,0.46964 -0.90908,0.79777 0.446653,3.21209 1.059604,1.6009 0.350741,-0.89577 0.367548,-1.87832 0.447312,-2.82926 0.08591,-0.60976 -0.166025,-2.30099 -0.848589,-1.1433 -0.742773,1.25942 -0.91834,2.77244 -1.292275,4.1759 -0.197172,0.56869 0.05092,1.3148 0.280104,0.30444 0.206386,-0.94208 0.486051,-1.92164 0.240989,-2.87994 -0.06336,-1.02082 -1.140668,-2.87614 -2.092857,-1.53047 -0.852834,1.06455 -0.368426,2.55857 -0.0033,3.73223 0.533297,1.52574 0.838654,-0.86347 0.851339,-1.45565 -0.121873,-1.02461 -0.02551,-2.37439 -0.86824,-3.05907 -1.410662,-0.1855 -1.894371,1.89712 -1.868218,3.05551 -0.202751,1.32396 1.48578,1.3298 1.506166,0.0707 0.42367,-1.27048 -0.2161,-2.96928 -1.498142,-3.38881 -1.123471,0.25825 -1.215764,1.83909 -1.237595,2.84659 -0.219691,0.82848 0.847234,2.31939 1.302731,0.94887 0.523157,-1.17712 0.23318,-2.60061 -0.322614,-3.71245 -0.203974,-1.19438 -1.7466,-1.92655 -2.129236,-0.38402 -0.495858,0.84349 -0.501055,2.92342 0.823436,2.67317 0.841163,-0.77706 0.40474,-2.17921 -0.155948,-3.02903 C 9.765,21.00016 8.339614,19.80312 8.25759,21.60222 8.022863,22.476 8.040043,23.46332 8.479086,24.25273 9.322462,24.61125 9.959172,23.07952 9.854152,22.31401 9.784942,21.28561 9.470059,19.82841 8.486284,19.39964 7.676226,19.86767 7.346742,21.71411 8.480584,22.04171 9.6802,21.63532 9.406911,19.82368 9.043267,18.82379 8.667195,18.13288 8.446419,17.15583 7.431857,17.50716 c -0.793923,0.73181 -1.199803,1.94807 -1.229954,3.045 -0.0082,1.2448 1.339813,1.31658 1.541865,0.13838 0.503725,-1.2378 0.422168,-2.67763 0.02708,-3.9314 -0.06098,-1.13616 -1.34799,-1.82967 -1.563901,-0.34355 -0.433941,0.56159 -0.05235,2.03511 0.976609,1.28964 0.739588,-0.85708 0.883825,-2.19024 0.528312,-3.25672 -0.267994,-0.93476 -0.987961,-1.2582 -1.35935,-0.0571 -0.338112,1.64722 1.270027,0.63936 1.612677,-0.3461 0.5897,-0.69116 1.196268,-2.18073 0.325684,-2.77883 -1.17847,0.52216 -1.461959,2.20947 -1.212703,3.42441 0.08136,1.12806 1.429508,2.18088 2.356054,1.27933 0.681975,-0.87615 1.156201,-1.97237 1.210129,-3.11047 -0.08023,-0.87991 0.251216,-2.05163 -0.594792,-2.6099 -1.101556,0.15437 -1.341273,1.52926 -1.539899,2.47233 -0.02775,1.17336 -0.228287,2.68821 0.826346,3.47029 1.075175,0.65211 2.378155,-0.25164 2.813253,-1.31766 0.734562,-0.91304 0.794564,-2.39233 0.129729,-3.35502 -0.996581,-0.61989 -1.910367,0.55791 -2.364971,1.38177 -0.528293,1.05316 -0.715929,2.26667 -0.908462,3.42767 -0.02799,1.25519 -0.115991,2.79003 0.886948,3.69564 0.836181,0.72474 1.939365,0.32749 2.730418,-0.24508 1.390443,-1.07334 2.413528,-2.66327 2.891865,-4.38541 0.287168,-1.01195 -0.0985,-3.17644 -1.495391,-2.33785 -1.412374,0.79914 -2.152791,2.50902 -2.020754,4.14552 -0.0034,1.35052 0.384003,2.92138 1.52996,3.69792 1.169108,0.8059 2.901599,0.40642 3.680991,-0.79836 0.676373,-0.78316 1.460719,-1.85656 1.054447,-2.9583 -0.352687,-1.28836 -2.088683,-1.50337 -2.698876,-0.30431 -0.766803,1.28405 -0.389615,2.86834 -0.0059,4.21469 0.417531,0.99382 1.476668,1.8508 2.529061,1.26494 1.043353,-0.48175 1.801621,-1.45947 2.359571,-2.45936 0.81755,-1.50779 -1.575662,-1.48722 -1.604848,-0.12076 -0.477906,0.95443 -0.446327,2.67571 0.83488,2.8862 1.0621,0.18273 2.112296,-0.22015 2.842642,-1.04068 0.74004,-0.73191 1.434702,-1.70598 1.488125,-2.79564 -0.07383,-1.27307 -1.756418,-1.45515 -2.03909,-0.20207 -0.671753,1.16203 0.01389,3.25801 1.502569,3.12499 1.241624,-0.0148 2.351531,-0.92705 2.991856,-1.9728 0.01206,-1.64641 -1.814728,0.12638 -1.337259,1.03452 0.201142,1.53734 1.99589,0.95242 2.062951,-0.34265 0.546074,-1.51849 -0.168887,-3.13512 -0.981058,-4.38592 -0.668724,-1.17436 -2.576199,-1.12543 -3.001463,0.23746 -0.479008,1.15184 -0.03747,3.12522 1.443677,2.96694 1.305837,-0.52166 1.770392,-2.17044 1.813152,-3.50914 0.01616,-1.05046 1.74e-4,-2.69044 -1.235053,-2.96457 -1.037952,-0.0894 -2.196403,0.61871 -2.481234,1.68184 -0.37697,1.32169 1.488605,2.13644 1.528061,0.46975 0.140348,-1.22656 -0.09529,-2.57128 -0.775505,-3.59064 -0.680731,-0.83974 -1.852179,-0.58246 -2.57936,0.0393 -1.053761,0.72904 -1.674826,2.34526 -0.83748,3.48546 0.889085,1.07974 2.60236,0.094 2.732922,-1.15442 0.123066,-1.10126 -0.454733,-2.2671 -1.132518,-3.09144 -0.739016,-0.95392 -2.086097,-0.38049 -2.694501,0.43577 -0.56094,0.99395 -0.460414,2.4247 0.281595,3.30229 1.003353,0.58563 1.97601,-0.66014 2.077381,-1.63368 0.179649,-1.23218 -0.0747,-2.84214 -1.257252,-3.43573 -0.999352,-0.37327 -2.01814,0.35918 -2.833885,0.88172 -0.893297,0.70866 -1.547318,1.83154 -1.559757,3.01625 0.03274,1.46825 2.298817,1.6637 2.570091,0.22638 0.370427,-1.20054 -0.206747,-2.50016 -1.002262,-3.35238 -0.712843,-0.84236 -1.87616,-0.60137 -2.621785,0.0547 -1.190482,0.86919 -1.874445,2.4179 -1.916773,3.90791 -0.05771,1.20782 1.026875,2.48879 2.215938,1.86582 0.805998,-0.51266 1.319809,-1.44896 1.433631,-2.41334 0.188389,-1.05791 -0.06169,-2.23842 -0.655898,-3.11684 -1.13219,-0.86404 -1.961297,0.91491 -2.064274,1.91964 -0.25418,1.52191 0.01351,3.15933 0.696757,4.52302 0.504546,0.95306 1.602199,1.44946 2.612363,1.12018 1.165733,-0.29214 2.201244,-1.15869 2.829928,-2.20583 0.555747,-0.88721 0.930142,-1.99039 0.676368,-3.04658 -0.746825,-1.24745 -2.327175,-0.23517 -3.166412,0.4309 -1.215456,0.74186 -1.101937,2.3057 -0.79346,3.52574 0.276545,1.24617 1.641974,2.03763 2.782664,1.47534 0.720087,-0.51174 1.804718,-1.63145 1.494244,-2.50127 -0.689768,0.0684 -1.022193,2.37441 -0.121692,2.17805"
           id="path4176"
           inkscape:connector-curvature="0" />
        <path
           style="color:#000000;fill:none;stroke:#000000;stroke-width:0.40000001;stroke-linecap:round;stroke-linejoin:round;stroke-miterlimit:4;stroke-opacity:0.11739131;stroke-dasharray:0.4, 1.6;stroke-dashoffset:0;marker:none;visibility:visible;display:inline;overflow:visible;enable-background:accumulate"
           d="m 11.874999,10.75001 c -0.720764,0.30392 -1.07818,1.25137 -1.538123,1.88635 -0.457112,0.8522 -0.609716,1.83309 -0.809658,2.76931 -0.237576,0.98842 -0.0071,1.97259 0.405477,2.87788 0.272394,0.67835 1.093581,1.94689 1.817304,1.02896 0.511343,-0.86195 0.551952,-1.9273 0.723383,-2.90353 0.08844,-0.7086 0.01783,-2.33859 -1.035883,-2.03397 -0.653674,0.52264 -0.864449,1.77497 -0.289061,2.4453 0.456634,0.47055 1.336144,0.70326 1.765622,0.55654 -0.370948,0.85237 -1.246265,1.85379 -0.499339,2.7728 0.572322,0.65447 1.486749,0.91785 2.335277,0.85036 1.044958,0.0287 2.089008,-0.4173 2.699377,-1.28316 0.593017,-0.64865 0.735969,-2.10045 -0.478259,-2.04639 -1.102223,0.12326 -1.960202,0.93243 -2.69556,1.69915 -0.801167,0.69213 -1.393987,1.84281 -0.849244,2.87124 0.474938,0.85076 1.402068,1.42099 2.321888,1.68651 1.173965,0.34444 2.334688,-0.27331 3.064298,-1.17735 0.297571,-0.29369 1.175247,-1.3565 1.016936,-1.22991 -0.556525,0.65181 -0.95806,1.96645 0.0448,2.39734 1.227813,0.46465 2.499656,-0.19101 3.518269,-0.84049 0.983762,-0.57177 0.750683,-1.78811 0.732492,-2.73736 0.0097,-0.70929 0.310341,-1.75333 -0.591271,-2.07175 -0.794179,-0.35832 -1.79488,-0.25182 -2.523225,0.21038 -0.762059,0.60594 -0.513777,2.02046 0.402513,2.32428 1.228176,0.0205 1.915726,-1.16068 2.686638,-1.93029 0.531854,-0.67861 0.848029,-1.49001 1.150345,-2.2472 0.21197,-0.78398 1.027651,-2.08347 -0.201988,-2.43683 -1.00369,-0.38262 -2.123784,0.006 -2.735512,0.87433 -0.573899,0.28696 -0.524476,1.51578 0.0625,0.5625 0.564496,-0.8127 0.354547,-2.09032 -0.628103,-2.47647 -0.885075,-0.35157 -1.827886,0.28127 -2.484165,0.84107 -0.813215,1.07825 -0.655967,2.58477 -0.305828,3.81409 -0.02008,0.50456 1.069271,1.29542 0.730596,0.32131 -0.281495,-0.91259 -1.194974,-1.618 -2.147825,-1.69756 -1.307115,0.20891 0.01571,1.88468 0.686887,0.79852 0.601758,-0.65949 0.634655,-1.62658 0.489075,-2.46275 -0.228819,-0.97882 -0.96426,-1.79101 -1.921338,-2.11036 -0.979521,-0.38372 -2.14004,0.10991 -2.582067,1.06267 -0.492025,0.60926 0.09686,2.42211 0.912768,1.40948 0.703886,-1.23667 1.242461,-2.56278 2.027269,-3.75281 0.589589,-0.75383 1.208517,-1.85819 2.325272,-1.73381 1.01003,0.0456 1.295731,1.13193 1.766088,1.83621 0.983011,0.65537 1.459605,-0.96928 1.318871,-1.72459 0.0025,-1.08152 -0.639544,-2.20636 -1.81416,-2.29412 -0.93205,-0.002 -1.519193,0.14758 -2.515912,0.16737 -0.966251,0.19971 -1.83234,0.69219 -2.672605,1.18525 -0.41299,0.17411 -1.367799,1.06929 -0.372323,0.6915 0.420607,-0.24677 1.147713,-0.862 1.9375,-1.0625 0.932988,-0.17813 1.791108,0.36563 2.611231,0.74653 1.168766,0.76052 2.555148,1.13655 3.629069,2.04072 0.332373,0.78671 0.872242,1.50633 1.7597,1.71275 0.756138,0.48846 0.867855,1.46131 1.155125,2.2504 0.365413,0.59705 0.716621,1.9786 0.778896,2.24023 0.195047,0.86241 0.249307,1.73454 0.02632,2.59953 -0.150784,0.93029 -0.367619,1.90827 -0.932426,2.67428 -0.467731,0.67218 -1.057757,1.21648 -1.465417,1.92306 -0.410732,0.70663 -0.542037,1.86308 -1.593575,1.84461 -0.694819,0.13322 -1.496116,0.13046 -2.162495,0.0363 -0.873967,-0.26532 -1.919545,0.26951 -2.840985,-0.0565 -0.730209,-0.22683 -1.512818,-0.11539 -2.264405,-0.0745 -0.590646,-0.005 -1.171743,0.14566 -1.764042,0.003 -1.061834,-0.36778 -2.247115,-0.59023 -3.186997,-1.25292 -0.831215,-0.47461 -1.437461,-1.24934 -2,-2 -0.22657,-0.56799 -0.08573,-1.20743 -0.125,-1.8125 0.897837,0.37002 1.663011,1.17105 2.672174,1.26687 0.798814,0.29407 1.720844,0.92829 1.784717,1.84944 -0.125369,0.76062 -0.06553,1.30729 -0.269391,2.07119 -0.383745,0.43636 -0.822655,0.67309 -0.0018,0.78849 1.007741,0.19499 2.031964,0.27139 3.04189,0.0451 l 0.147401,-0.0211"
           id="path4179"
           inkscape:connector-curvature="0" />
        <path
           sodipodi:nodetypes="cssssc"
           id="path4145"
           d="m 7.637063,11.77844 c 0,0 -1.338476,1.4606 -1.730408,3.11611 -0.391933,1.65551 -0.271795,3.55609 0.154122,3.38212 0.425918,-0.17396 0.841736,-1.18696 0.800619,-1.5838 C 6.820286,16.29604 7.392965,12.80084 7.836115,12.38121 8.11639,12.1158 7.633616,11.82757 7.637063,11.77844 z"
           style="opacity:0.71951222;color:#000000;fill:url(#radialGradient3106);fill-opacity:1;fill-rule:nonzero;stroke:none;stroke-width:1;marker:none;visibility:visible;display:inline;overflow:visible;enable-background:accumulate"
           clip-path="none"
           mask="none"
           inkscape:connector-curvature="0" />
      </g>
    </g>
  </g>
</svg>
